# xmcd
# 
# Track frame offsets:
#     150
#     20870
#     32545
#     47985
#     62550
#     74447
#     89355
#     100600
#     113652
#     126497
#     133270
#     145300
#     159480
#     170647
#     186457
#     199490
#     219455
#     233762
#     247767
#     262292
#     276067
#     288837
#     310740
#     326025
# 
# Disc length: 4540
# 
# Revision: 4
# Processed by: cddbd v1.5.2PL0 Copyright (c) Steve Scherf et al.
# Submitted via: BonkEnc v1.0.8
# 
DISCID=7511ba18
DTITLE=Frank Sinatra - Frank Sinatra
DYEAR=1997
DGENRE=Easy Listening
TTITLE0=Frank Sinatra - My Way
TTITLE1=Frank Sinatra - Strangers in the Night
TTITLE2=Frank Sinatra - Theme from New York New York
TTITLE3=Frank Sinatra - I Get a Kick Out if You
TTITLE4=Frank Sinatra - Something Stupid
TTITLE5=Frank Sinatra - Moon River
TTITLE6=Frank Sinatra - What Now My Love?
TTITLE7=Frank Sinatra - Summer Wind
TTITLE8=Frank Sinatra - For Once in My Life
TTITLE9=Frank Sinatra - Love and Marriage
TTITLE10=Frank Sinatra - They Can't Take That Away From Me
TTITLE11=frank sinatra - My Kind of Town
TTITLE12=Frank Sinatra - Fly Me to the Moon
TTITLE13=Frank Sinatra - I've Got You Under My Skin
TTITLE14=Frank Sinatra - The Best Is Yet To Come
TTITLE15=Frank Sinatra - It Was a Very Good Year
TTITLE16=Frank Sinatra - Come Fly With Me
TTITLE17=Frank Sinatra - That's Life
TTITLE18=Frank Sinatra - The Girl From Ipanema
TTITLE19=Frank Sinatra - The Lady is a Tramp
TTITLE20=Frank Sinatra - Bad Bad Leroy Brown
TTITLE21=Frank Sinatra - Mack the Knife
TTITLE22=Frank Sinatra - Love's Been Good to Me
TTITLE23=Frank Sinatra - L.A. is My Lady
EXTD=
EXTT0=
EXTT1=
EXTT2=
EXTT3=
EXTT4=
EXTT5=
EXTT6=
EXTT7=
EXTT8=
EXTT9=
EXTT10=
EXTT11=
EXTT12=
EXTT13=
EXTT14=
EXTT15=
EXTT16=
EXTT17=
EXTT18=
EXTT19=
EXTT20=
EXTT21=
EXTT22=
EXTT23=
PLAYORDER=
